<svg viewBox="0 0 800 400" xmlns="http://www.w3.org/2000/svg">
  <defs>
    <linearGradient id="productGradient" x1="0%" y1="0%" x2="100%" y2="100%">
      <stop offset="0%" style="stop-color:#2563eb;stop-opacity:0.8" />
      <stop offset="100%" style="stop-color:#3b82f6;stop-opacity:0.8" />
    </linearGradient>
    <linearGradient id="goldGradient" x1="0%" y1="0%" x2="100%" y2="100%">
      <stop offset="0%" style="stop-color:#f59e0b;stop-opacity:1" />
      <stop offset="100%" style="stop-color:#eab308;stop-opacity:1" />
    </linearGradient>
  </defs>
  
  <!-- Background -->
  <rect width="800" height="400" fill="#f8fafc"/>
  
  <!-- Digital grid -->
  <g stroke="#e2e8f0" stroke-width="1" opacity="0.5">
    <defs>
      <pattern id="grid" width="40" height="40" patternUnits="userSpaceOnUse">
        <path d="M 40 0 L 0 0 0 40" fill="none" stroke="#e2e8f0" stroke-width="1"/>
      </pattern>
    </defs>
    <rect width="800" height="400" fill="url(#grid)" />
  </g>
  
  <!-- Enterprise blocks -->
  <g fill="url(#productGradient)">
    <rect x="50" y="80" width="120" height="80" rx="12" />
    <rect x="200" y="120" width="120" height="80" rx="12" />
    <rect x="350" y="60" width="120" height="80" rx="12" />
    <rect x="500" y="100" width="120" height="80" rx="12" />
    <rect x="650" y="70" width="120" height="80" rx="12" />
  </g>
  
  <!-- Analytics charts -->
  <g fill="url(#goldGradient)">
    <rect x="100" y="250" width="8" height="60" rx="4" />
    <rect x="120" y="230" width="8" height="80" rx="4" />
    <rect x="140" y="210" width="8" height="100" rx="4" />
    <rect x="160" y="190" width="8" height="120" rx="4" />
    <rect x="180" y="200" width="8" height="110" rx="4" />
    
    <rect x="450" y="240" width="8" height="70" rx="4" />
    <rect x="470" y="220" width="8" height="90" rx="4" />
    <rect x="490" y="200" width="8" height="110" rx="4" />
    <rect x="510" y="180" width="8" height="130" rx="4" />
    <rect x="530" y="190" width="8" height="120" rx="4" />
  </g>
  
  <!-- Security shields -->
  <g fill="url(#productGradient)">
    <path d="M680 250 L665 230 L695 230 Z" />
    <rect x="670" y="250" width="20" height="30" rx="3" />
    <circle cx="680" cy="265" r="5" fill="url(#goldGradient)" />
    
    <path d="M730 270 L715 250 L745 250 Z" />
    <rect x="720" y="270" width="20" height="30" rx="3" />
    <circle cx="730" cy="285" r="5" fill="url(#goldGradient)" />
  </g>
  
  <!-- Connection lines -->
  <g stroke="url(#productGradient)" stroke-width="3" fill="none" opacity="0.6">
    <path d="M170 120 Q300 140 360 100" />
    <path d="M470 140 Q550 160 650 110" />
    <path d="M200 280 Q350 300 500 280" />
  </g>
  
  <!-- Data nodes -->
  <g fill="url(#goldGradient)">
    <circle cx="110" cy="120" r="6" />
    <circle cx="260" cy="160" r="6" />
    <circle cx="410" cy="100" r="6" />
    <circle cx="560" cy="140" r="6" />
    <circle cx="710" cy="110" r="6" />
  </g>
</svg>